<?xml version="1.0" encoding="UTF-8"?>
<svg id="Layer_2" data-name="Layer 2" xmlns="http://www.w3.org/2000/svg" viewBox="0 0 1115.99 1028.58">
  <g id="Layer_1-2" data-name="Layer 1">
    <path d="m841.14,364.6l-820.01.68c-7.06-.05-15.07,4.24-18.75,14.02-1.04,8.32,1.88,15.13,6.79,19.15l-.1-.09,256.62,216.77c17.96,15.17,28.91,37.03,30.31,60.5l20.03,335.35c.13,2.37.76,4.87,1.95,7.24,4.64,9.25,15.91,13,25.16,8.36h0l.07-.03c2.7-1.36,6.52-5.51,6.52-5.51l491.4-656.45Z"/>
    <path d="m1115.99.74c-1.46-2.05-945.2.85-1095.6.24C9.14.94,0,10.05,0,21.3v236.59c0,11.22,9.09,20.31,20.31,20.31h877.83c6.4,0,12.42-3.02,16.26-8.14L1115.99.74"/>
  </g>
</svg>